<?xml version="1.0" encoding="UTF-8" standalone="no"?>
<!-- Created with Inkscape (http://www.inkscape.org/) -->

<svg
   width="121.40153mm"
   height="52.414536mm"
   viewBox="0 0 121.40153 52.414536"
   version="1.1"
   id="svg1"
   xml:space="preserve"
   xmlns="http://www.w3.org/2000/svg"
   xmlns:svg="http://www.w3.org/2000/svg"><defs
     id="defs1" /><g
     id="layer1"
     transform="translate(44.305191,-202.32436)"><path
       id="path27-0-8-0-7-8-5"
       style="baseline-shift:baseline;display:inline;overflow:visible;fill:#0088aa;fill-opacity:1;stroke:#1a1a1a;stroke-width:6;stroke-linecap:square;stroke-dasharray:none;stroke-opacity:1;paint-order:markers stroke fill;enable-background:accumulate;stop-color:#000000"
       d="m -18.098153,205.32435 c -12.71241,0 -23.20704,10.49501 -23.20704,23.20744 0,12.71243 10.49463,23.20705 23.20704,23.20705 0.0406,0 0.0814,-1.9e-4 0.12193,-4.1e-4 l 87.83002,4.1e-4 c -7.73538,-7.73559 -15.46989,-15.47204 -23.20584,-23.20705 7.73423,-7.73686 15.47037,-15.47183 23.20584,-23.20744 z" /><path
       id="path41-9-7-1-1"
       style="baseline-shift:baseline;display:inline;overflow:visible;vector-effect:none;fill:#e5e5e5;fill-opacity:1;stroke-linecap:round;stroke-linejoin:round;paint-order:markers stroke fill;enable-background:accumulate;stop-color:#000000"
       d="m -18.097623,213.64257 c -0.92624,0 -1.68362,0.75736 -1.68362,1.6836 0,0.62662 0.34637,1.17579 0.85732,1.46556 l -0.006,0.16641 c -2.57116,0.18453 -4.9174,1.21677 -6.75928,2.81688 -0.35435,0.30783 -0.69012,0.63657 -1.00511,0.98443 0.2678,-0.29572 0.55052,-0.5779 0.84698,-0.84491 0.0522,-0.047 0.10506,-0.0934 0.15813,-0.13952 l -0.1633,-0.1633 0.33693,-0.33693 c 0.0822,-0.0822 0.0822,-0.21545 0,-0.29766 l -0.42788,-0.42788 c -0.17302,-0.17301 -0.40104,-0.25941 -0.62942,-0.25941 -0.22838,0 -0.45691,0.0864 -0.62993,0.25941 l -0.85577,0.85576 c -0.34604,0.34604 -0.34603,0.91332 0,1.25936 l 0.42788,0.42788 c 0.0822,0.0822 0.21545,0.0822 0.29766,0 l 0.33693,-0.33693 0.16175,0.16175 c -1.78323,2.04173 -2.86701,4.70789 -2.86701,7.61452 0,6.38102 5.22292,11.60394 11.60394,11.60394 6.38102,0 11.60343,-5.22292 11.60343,-11.60394 0,-2.90669 -1.08383,-5.57277 -2.86701,-7.61452 l 0.16175,-0.16175 0.33693,0.33693 c 0.0822,0.0822 0.21544,0.0822 0.29765,0 l 0.42788,-0.42788 c 0.34603,-0.34604 0.34605,-0.91332 0,-1.25936 l -0.85576,-0.85576 c -0.17302,-0.17301 -0.40155,-0.25941 -0.62993,-0.25941 -0.22839,0 -0.4564,0.0864 -0.62942,0.25941 l -0.42788,0.42788 c -0.0822,0.0822 -0.0822,0.21545 0,0.29766 l 0.33693,0.33693 -0.1633,0.1633 c -1.84178,-1.60005 -4.18817,-2.63237 -6.75928,-2.81688 l -0.006,-0.16641 c 0.51105,-0.28972 0.85731,-0.83887 0.85731,-1.46556 0,-0.92625 -0.75684,-1.6836 -1.6831,-1.6836 z m 0,0.57825 c 0.61379,0 1.10484,0.49158 1.10484,1.10535 0,0.31497 -0.12902,0.59724 -0.33796,0.79789 -0.0882,-0.22523 -0.30903,-0.38551 -0.56224,-0.38551 h -0.40979 c -0.25318,0 -0.47407,0.16033 -0.56224,0.38551 -0.20886,-0.20066 -0.33797,-0.48297 -0.33797,-0.79789 0,-0.61377 0.49158,-1.10535 1.10536,-1.10535 z m 0,7.34891 c 3.8726,0 6.96185,3.08926 6.96185,6.96185 0,3.87259 -3.08925,6.96236 -6.96185,6.96236 -3.8726,0 -6.96236,-3.08977 -6.96236,-6.96236 0,-3.87259 3.08976,-6.96185 6.96236,-6.96185 z m -0.0109,0.14935 c -0.0819,0.006 -0.14532,0.074 -0.14521,0.15606 v 0.008 l -0.13229,5.92572 c -0.28744,0.11523 -0.49095,0.39654 -0.49093,0.72296 -10e-6,0.25415 0.18294,0.42954 0.37311,0.57206 l -0.0527,1.38492 c -0.004,0.0886 0.0674,0.16236 0.15606,0.16227 h 0.60565 c 0.0887,9e-5 0.15961,-0.0737 0.15606,-0.16227 l -0.0527,-1.38492 c 0.19016,-0.14253 0.3731,-0.31794 0.3731,-0.57206 10e-6,-0.3264 -0.20351,-0.60771 -0.49092,-0.72296 l -0.13229,-5.92572 v -0.008 c 10e-5,-0.0906 -0.0766,-0.16225 -0.16692,-0.15606 z m 0.0109,6.56032 c 0.0317,0 0.0618,0.004 0.0879,0.0139 0.0968,0.0352 0.16589,0.12571 0.16588,0.23823 3e-5,0.0864 -0.0407,0.15937 -0.10335,0.20515 -0.0418,0.0306 -0.0928,0.0486 -0.15038,0.0486 -0.058,-1.9e-4 -0.10893,-0.0183 -0.15038,-0.0486 -0.0625,-0.0458 -0.10333,-0.11875 -0.10335,-0.20515 -3e-5,-0.11258 0.0692,-0.20312 0.16588,-0.23823 0.0282,-0.01 0.0573,-0.014 0.0879,-0.0139 z" /><path
       id="path10-1-9-7-7-8-2"
       style="baseline-shift:baseline;display:inline;overflow:visible;vector-effect:none;fill:#1a1a1a;fill-opacity:1;stroke-width:0.773575;stroke-linecap:square;paint-order:markers stroke fill;enable-background:accumulate;stop-color:#000000"
       d="m 23.675017,228.53172 11.60373,11.60372 h 6.56319 l -0.11633,-0.11633 -11.48739,-11.48739 11.48739,-11.48741 0.11633,-0.11633 h -6.56319 z" /><path
       id="path9-3-8-3-7-2-0"
       style="baseline-shift:baseline;display:inline;overflow:visible;vector-effect:none;fill:#1a1a1a;fill-opacity:1;stroke-width:0.773575;stroke-linecap:square;paint-order:markers stroke fill;enable-background:accumulate;stop-color:#000000"
       d="m 19.033457,216.92799 v 2.32099 18.56587 2.32059 h 4.64156 v -2.32059 -9.28313 -9.28274 -2.32099 z" /><path
       id="path3-9-0-7-3-6-1"
       style="baseline-shift:baseline;display:inline;overflow:visible;vector-effect:none;fill:#1a1a1a;fill-opacity:1;stroke-width:0.773575;stroke-linecap:square;paint-order:markers stroke fill;enable-background:accumulate;stop-color:#000000"
       d="m -6.494043,216.92799 v 4.64157 h 2.32059 6.96214 v 16.24529 2.32059 h 4.64158 v -2.32059 -16.24529 h 6.96215 2.32058 v -4.64157 h -2.32058 -6.96215 -4.64158 -6.96214 z" /></g></svg>
